<svg viewBox="0 0 119 32" fill="none" xmlns="http://www.w3.org/2000/svg" width="110" height="30"><path d="M18.6796 15.0182C18.6483 11.5273 21.5231 9.82896 21.6545 9.74989C20.0264 7.36377 17.5029 7.03774 16.6162 7.01175C14.4967 6.78754 12.4409 8.28659 11.3612 8.28659C10.26 8.28659 8.59744 7.03341 6.80556 7.07024C4.49972 7.10598 2.34258 8.44797 1.15949 10.5319C-1.28212 14.781 0.538851 21.0252 2.87809 24.4598C4.04825 26.143 5.41559 28.0201 7.20531 27.954C8.95624 27.8825 9.61028 26.833 11.7232 26.833C13.8168 26.833 14.431 27.954 16.2563 27.9118C18.1354 27.8825 19.3185 26.2221 20.4477 24.5248C21.8 22.5979 22.343 20.6981 22.3646 20.6007C22.3215 20.5855 18.7162 19.2013 18.6796 15.0182Z" fill="white"></path><path d="M15.327 5.06468C16.2749 3.89768 16.9234 2.31001 16.7434 0.698853C15.3715 0.758644 13.6557 1.63309 12.6677 2.77446C11.7936 3.78024 11.0127 5.42877 11.2144 6.97907C12.7555 7.09225 14.3379 6.21353 15.327 5.06468Z" fill="white"></path><path fill-rule="evenodd" clip-rule="evenodd" d="M41.663 27.3531H44.132L39.4528 13.157H36.5762L31.9177 27.3531H34.3214L35.6097 23.1832H40.3106L41.663 27.3531ZM38.6798 17.7269L39.9029 21.4338H36.0174L37.2198 17.7269C37.534 16.5481 37.7634 15.6563 37.9069 15.0526H37.9504C38.3069 16.4564 38.5505 17.3482 38.6798 17.7269Z" fill="white"></path><path fill-rule="evenodd" clip-rule="evenodd" d="M54.6427 26.2361C55.607 25.2259 56.0887 23.8498 56.0887 22.1089C56.0887 20.5504 55.6766 19.2938 54.8558 18.3369C54.0339 17.3822 53.0065 16.9054 51.7759 16.9054C50.2016 16.9054 49.0286 17.5166 48.2556 18.7391H48.2121L48.0828 17.1166H46.0443C46.1008 18.2665 46.1302 19.3877 46.1302 20.4811V31.5036H48.448V26.1326C49.0514 27.1012 50.0451 27.5844 51.4269 27.5844C52.7065 27.5844 53.7795 27.1354 54.6427 26.2361ZM53.0402 19.7269C53.499 20.3744 53.7273 21.1958 53.7273 22.1921C53.7273 23.2738 53.4838 24.1442 52.9967 24.8045C52.5108 25.4627 51.8313 25.7945 50.9583 25.7945C50.2147 25.7945 49.6102 25.5374 49.1449 25.0254C48.6796 24.5112 48.447 23.8829 48.447 23.1394V21.4315C48.447 21.2502 48.4828 21.0208 48.5546 20.7392C48.697 20.1355 49.0014 19.648 49.4667 19.2746C49.9309 18.9045 50.4506 18.7167 51.0225 18.7167C51.8661 18.7167 52.5391 19.0538 53.0402 19.7269Z" fill="white"></path><path fill-rule="evenodd" clip-rule="evenodd" d="M66.6418 26.2361C67.6061 25.2259 68.0877 23.8498 68.0877 22.1089C68.0877 20.5504 67.6746 19.2938 66.8549 18.3369C66.0308 17.3822 65.0034 16.9054 63.7738 16.9054C62.1985 16.9054 61.0255 17.5166 60.2536 18.7391H60.2101L60.0807 17.1166H58.0423C58.0988 18.2665 58.1282 19.3877 58.1282 20.4811V31.5036H60.446V26.1326C61.0494 27.1012 62.0431 27.5844 63.4249 27.5844C64.7055 27.5844 65.7775 27.1354 66.6418 26.2361ZM65.0371 19.7269C65.4959 20.3744 65.7253 21.1958 65.7253 22.1921C65.7253 23.2738 65.4818 24.1442 64.9947 24.8045C64.5099 25.4627 63.8304 25.7945 62.9563 25.7945C62.2105 25.7945 61.606 25.5363 61.1407 25.0254C60.6776 24.5112 60.4439 23.8829 60.4439 23.1394V21.4315C60.4439 21.2502 60.4819 21.0208 60.5526 20.7392C60.695 20.1355 60.9983 19.648 61.4636 19.2746C61.93 18.9045 62.4497 18.7167 63.0215 18.7167C63.8652 18.7167 64.5359 19.0538 65.0371 19.7269Z" fill="white"></path><path d="M81.5034 23.3709C81.5034 24.5795 81.0729 25.562 80.2173 26.3204C79.2758 27.1482 77.9614 27.5631 76.2763 27.5631C74.7195 27.5631 73.4714 27.2687 72.5299 26.6788L73.0659 24.7832C74.0824 25.3742 75.1989 25.6686 76.4144 25.6686C77.2884 25.6686 77.9679 25.4745 78.4528 25.0894C78.9388 24.7032 79.1845 24.1869 79.1845 23.5426C79.1845 22.9655 78.9812 22.4823 78.5822 22.0887C78.181 21.6961 77.5178 21.3302 76.5861 20.9942C74.053 20.0672 72.7854 18.7114 72.7854 16.9278C72.7854 15.7629 73.2333 14.8093 74.127 14.0636C75.0206 13.3191 76.2056 12.9468 77.6798 12.9468C78.9964 12.9468 80.0933 13.1719 80.9642 13.621L80.3825 15.4749C79.5628 15.0397 78.6376 14.8221 77.6026 14.8221C76.7851 14.8221 76.1437 15.0194 75.6849 15.412C75.2989 15.7629 75.1032 16.1907 75.1032 16.6985C75.1032 17.2585 75.3261 17.7236 75.7697 18.0884C76.1545 18.4244 76.8568 18.7903 77.8722 19.1829C79.1181 19.6757 80.0335 20.2496 80.6195 20.9089C81.2099 21.5681 81.5034 22.3906 81.5034 23.3709Z" fill="white"></path><path d="M89.1864 18.8234H86.6316V23.7933C86.6316 25.0574 87.0817 25.6878 87.984 25.6878C88.3982 25.6878 88.7418 25.6537 89.0136 25.5822L89.0777 27.3093C88.6211 27.4768 88.0199 27.561 87.2752 27.561C86.3598 27.561 85.6444 27.2869 85.128 26.7386C84.6138 26.1903 84.355 25.2718 84.355 23.9789V18.8192H82.833V17.1124H84.355V15.2381L86.6316 14.564V17.1124H89.1864V18.8234Z" fill="white"></path><path fill-rule="evenodd" clip-rule="evenodd" d="M99.3166 26.0259C100.232 25.0157 100.691 23.7239 100.691 22.1505C100.691 20.6187 100.248 19.3706 99.359 18.4041C98.4284 17.4078 97.1988 16.9086 95.6681 16.9086C94.0798 16.9086 92.8165 17.4142 91.8782 18.4255C90.9422 19.4357 90.4725 20.7349 90.4725 22.3212C90.4725 23.837 90.927 25.0936 91.8358 26.091C92.7447 27.0863 93.9634 27.5844 95.4963 27.5844C97.0847 27.5844 98.3588 27.066 99.3166 26.0259ZM97.6674 19.7877C98.0816 20.4608 98.2882 21.2651 98.2882 22.2028C98.2882 23.1426 98.074 23.9522 97.6478 24.6413C97.1456 25.4659 96.4509 25.8809 95.5648 25.8809C94.6592 25.8809 93.9602 25.4744 93.459 24.6616C93.0437 23.9906 92.8371 23.1842 92.8371 22.2454C92.8371 21.279 93.0437 20.4608 93.459 19.7877C93.9439 18.9748 94.656 18.5684 95.5844 18.5684C96.4857 18.5684 97.1814 18.9748 97.6674 19.7877Z" fill="white"></path><path d="M108.228 19.1167C107.999 19.0751 107.753 19.0538 107.498 19.0538C106.682 19.0538 106.052 19.3546 105.608 19.9605C105.223 20.4939 105.03 21.1681 105.03 21.982V27.353H102.712V20.3403C102.712 19.1615 102.689 18.0863 102.644 17.1177H104.663L104.748 19.0762H104.812C105.058 18.4031 105.443 17.8601 105.971 17.4537C106.488 17.0878 107.045 16.9054 107.646 16.9054C107.861 16.9054 108.054 16.9203 108.226 16.947L108.228 19.1167Z" fill="white"></path><path fill-rule="evenodd" clip-rule="evenodd" d="M118.509 22.782C118.567 22.5015 118.594 22.158 118.594 21.7505C118.594 20.4736 118.287 19.3984 117.674 18.5311C116.902 17.4366 115.763 16.8894 114.26 16.8894C112.729 16.8894 111.512 17.4366 110.612 18.5311C109.752 19.5562 109.323 20.8416 109.323 22.3841C109.323 23.9554 109.785 25.2099 110.707 26.1433C111.631 27.0756 112.901 27.5429 114.518 27.5429C115.863 27.5429 117.029 27.3327 118.016 26.9103L117.653 25.3326C116.808 25.6558 115.869 25.8158 114.839 25.8158C113.909 25.8158 113.151 25.5769 112.565 25.1011C111.919 24.5677 111.582 23.7933 111.556 22.782H118.509ZM115.934 19.4122C116.248 19.904 116.4 20.4854 116.384 21.1606L111.557 21.1585C111.628 20.4726 111.857 19.8816 112.243 19.3898C112.713 18.7711 113.33 18.4628 114.088 18.4628C114.915 18.4628 115.533 18.7786 115.934 19.4122Z" fill="white"></path><path fill-rule="evenodd" clip-rule="evenodd" d="M37.8767 7.79225H39.0899L36.7906 0.935059H35.3787L33.0913 7.79225H34.2719L34.9051 5.77839H37.2131L37.8767 7.79225ZM36.4127 3.14286L37.0133 4.93343H35.105L35.6947 3.14286C35.8387 2.62603 35.9388 2.22585 36.0113 1.93607C36.0186 1.90668 36.0257 1.87843 36.0325 1.85131H36.0542C36.2334 2.53273 36.3497 2.9594 36.4127 3.14286Z" fill="white"></path><path d="M44.8094 2.84827L42.8696 7.79224H41.7629L39.886 2.84827H41.109L41.9844 5.46283C42.1321 5.89998 42.2581 6.31722 42.3526 6.7135H42.3841C42.4688 6.35811 42.5948 5.94087 42.7523 5.46283L43.6169 2.84827H44.8094Z" fill="white"></path><path fill-rule="evenodd" clip-rule="evenodd" d="M48.8541 7.22299L48.9388 7.79224L49.9631 7.79329C49.9109 7.49871 49.8892 7.11187 49.8892 6.61286V4.79189C49.8892 3.428 49.2136 2.74658 47.8755 2.74658C47.1793 2.74658 46.5896 2.88916 46.1149 3.1743L46.3463 3.89661C46.7351 3.65235 47.1782 3.52969 47.6844 3.52969C48.3904 3.52969 48.7488 3.85573 48.7488 4.50675V4.59795C46.8513 4.59795 45.7554 5.22905 45.7554 6.44932C45.7554 7.2838 46.4093 7.90442 47.326 7.90442C47.9689 7.90442 48.4751 7.68112 48.8226 7.22299H48.8541ZM46.8828 6.32666C46.8828 5.62532 47.5149 5.32969 48.7803 5.32969V6.09288C48.7803 6.67262 48.2426 7.09929 47.6627 7.09929C47.2097 7.09929 46.8828 6.84559 46.8828 6.32666Z" fill="white"></path><path fill-rule="evenodd" clip-rule="evenodd" d="M51.7498 1.37221C51.7498 1.74856 52.0452 2.03371 52.4242 2.03371C52.8467 2.03371 53.1411 1.76953 53.1411 1.37221C53.1519 0.995857 52.8359 0.721191 52.446 0.721191C52.055 0.721191 51.7498 0.995857 51.7498 1.37221ZM51.8768 2.84827V7.79225H53.0151V2.84827H51.8768Z" fill="white"></path><path d="M56.1757 7.79229H55.0374V0.579712H56.1757V7.79229Z" fill="white"></path><path fill-rule="evenodd" clip-rule="evenodd" d="M60.9285 7.22307L61.0132 7.79232H62.0353C61.9853 7.49773 61.9625 7.11089 61.9625 6.61188V4.79092C61.9625 3.42703 61.2869 2.74561 59.9489 2.74561C59.2526 2.74561 58.6629 2.88818 58.1883 3.17333L58.4207 3.89668C58.8095 3.65242 59.2526 3.52976 59.7588 3.52976C60.4648 3.52976 60.8232 3.8558 60.8232 4.50682V4.59802C58.9257 4.59802 57.8298 5.22912 57.8298 6.44939C57.8298 7.28387 58.4837 7.90449 59.4004 7.90449C60.0433 7.90449 60.5495 7.68119 60.897 7.22307H60.9285ZM58.9572 6.32674C58.9572 5.6254 59.5893 5.32976 60.8547 5.32976V6.09296C60.8547 6.67269 60.317 7.09936 59.7371 7.09936C59.2841 7.09936 58.9572 6.84566 58.9572 6.32674Z" fill="white"></path><path fill-rule="evenodd" clip-rule="evenodd" d="M64.9635 7.0291C65.311 7.60883 65.8476 7.90446 66.5742 7.90446C67.8808 7.90446 68.8409 6.78484 68.8409 5.25007C68.8409 3.76562 67.9763 2.74768 66.7425 2.74768C65.9931 2.74768 65.4468 3.02234 65.109 3.57167H65.0873V0.579712H63.9479V6.45985C63.9479 6.94733 63.9371 7.39602 63.9056 7.79229H64.8755L64.9406 7.0291H64.9635ZM65.0884 4.92299C65.0884 4.15979 65.6879 3.61046 66.3428 3.61046C67.1542 3.61046 67.682 4.29293 67.6831 5.2899C67.6831 6.35816 67.1759 7.0291 66.3233 7.0291C65.6271 7.0291 65.0884 6.46929 65.0884 5.78787V4.92299Z" fill="white"></path><path d="M71.6615 7.79229H70.5244V0.579712H71.6615V7.79229Z" fill="white"></path><path fill-rule="evenodd" clip-rule="evenodd" d="M74.441 5.58455H77.8579C77.8905 5.45246 77.9002 5.27948 77.8959 5.08658C77.8959 3.67237 77.0726 2.73621 75.766 2.73621C74.3139 2.73621 73.3429 3.87575 73.3429 5.39165C73.3429 6.9065 74.2911 7.88356 75.8942 7.88356C76.5578 7.88356 77.1269 7.78187 77.6113 7.57849L77.4343 6.8153C77.0238 6.96731 76.56 7.04908 76.0538 7.04908C75.1046 7.04908 74.4638 6.52071 74.441 5.58455ZM75.6857 3.4994C76.4134 3.4994 76.8141 4.03824 76.8141 4.80144H74.441C74.517 4.04873 75.0318 3.4994 75.6857 3.4994Z" fill="white"></path><path fill-rule="evenodd" clip-rule="evenodd" d="M82.2903 5.36114C82.2903 6.82567 83.2602 7.90442 84.7569 7.90442C86.2861 7.90442 87.3092 6.82567 87.3092 5.28042C87.3092 3.77396 86.3165 2.74658 84.8427 2.74658C83.2808 2.74658 82.2903 3.83476 82.2903 5.36114ZM83.4513 5.32969C83.4513 4.29184 83.9781 3.54961 84.8003 3.54961C85.6008 3.54961 86.1275 4.30232 86.1265 5.30873C86.1265 6.29626 85.5899 7.08986 84.7894 7.08986C83.989 7.08986 83.4513 6.34763 83.4513 5.32969Z" fill="white"></path><path d="M93.4284 7.79232H92.2912V4.95341C92.2912 4.07909 91.9437 3.64089 91.2583 3.64089C90.5838 3.64089 90.119 4.2007 90.119 4.85172V7.79232H88.9818V4.26151C88.9818 3.82435 88.9699 3.35574 88.9395 2.84729H89.9409L89.9941 3.61049H90.0256C90.3297 3.08212 90.9531 2.74561 91.6482 2.74561C92.7224 2.74561 93.4284 3.5392 93.4284 4.83075V7.79232Z" fill="white"></path><path d="M100.876 3.67237H99.6237V6.07307C99.6237 6.68425 99.8441 6.98932 100.286 6.98932C100.487 6.98932 100.657 6.96835 100.792 6.93795L100.824 7.77243C100.602 7.8542 100.306 7.89509 99.9397 7.89509C99.0426 7.89509 98.5071 7.41704 98.5071 6.16533V3.67237H97.7599V2.84838H98.5071V1.94261L99.6237 1.61658V2.84733H100.876V3.67237Z" fill="white"></path><path d="M106.904 7.79229H105.765V4.97435C105.765 4.08955 105.417 3.64191 104.732 3.64191C104.142 3.64191 103.595 4.02875 103.595 4.81186V7.79229H102.455V0.579712H103.595V3.54966H103.616C103.975 3.01081 104.492 2.74558 105.155 2.74558C106.24 2.74558 106.904 3.55909 106.904 4.8517V7.79229Z" fill="white"></path><path fill-rule="evenodd" clip-rule="evenodd" d="M109.304 5.58455H112.72C112.752 5.45246 112.762 5.27948 112.758 5.08658C112.758 3.67237 111.935 2.73621 110.628 2.73621C109.176 2.73621 108.205 3.87575 108.205 5.39165C108.205 6.9065 109.153 7.88356 110.756 7.88356C111.42 7.88356 111.99 7.78187 112.475 7.57849L112.296 6.8153C111.886 6.96731 111.423 7.04908 110.916 7.04908C109.967 7.04908 109.326 6.52071 109.304 5.58455ZM110.549 3.4994C111.277 3.4994 111.676 4.03824 111.676 4.80144H109.304C109.379 4.04873 109.894 3.4994 110.549 3.4994Z" fill="white"></path></svg>