<?xml version="1.0" encoding="UTF-8" standalone="no"?>
<!-- Created with Inkscape (http://www.inkscape.org/) -->

<svg
   xmlns:dc="http://purl.org/dc/elements/1.1/"
   xmlns:cc="http://creativecommons.org/ns#"
   xmlns:rdf="http://www.w3.org/1999/02/22-rdf-syntax-ns#"
   xmlns:svg="http://www.w3.org/2000/svg"
   xmlns="http://www.w3.org/2000/svg"
   xmlns:sodipodi="http://sodipodi.sourceforge.net/DTD/sodipodi-0.dtd"
   xmlns:inkscape="http://www.inkscape.org/namespaces/inkscape"
   width="1039"
   height="377.99997"
   id="svg2"
   version="1.1"
   inkscape:version="0.48.3.1 r9886"
   sodipodi:docname="VistaVision Logo 001.svg">
  <defs
     id="defs4" />
  <sodipodi:namedview
     id="base"
     pagecolor="#ffffff"
     bordercolor="#666666"
     borderopacity="1.0"
     inkscape:pageopacity="0.0"
     inkscape:pageshadow="2"
     inkscape:zoom="0.693158"
     inkscape:cx="514.95065"
     inkscape:cy="157.60274"
     inkscape:document-units="px"
     inkscape:current-layer="layer1"
     showgrid="false"
     fit-margin-top="0"
     fit-margin-left="0"
     fit-margin-right="0"
     fit-margin-bottom="0"
     inkscape:window-width="1385"
     inkscape:window-height="876"
     inkscape:window-x="55"
     inkscape:window-y="24"
     inkscape:window-maximized="1"
     units="cm" />
  <metadata
     id="metadata7">
    <rdf:RDF>
      <cc:Work
         rdf:about="">
        <dc:format>image/svg+xml</dc:format>
        <dc:type
           rdf:resource="http://purl.org/dc/dcmitype/StillImage" />
        <dc:title></dc:title>
      </cc:Work>
    </rdf:RDF>
  </metadata>
  <g
     inkscape:label="Ebene 1"
     inkscape:groupmode="layer"
     id="layer1"
     transform="translate(174.05369,-794.02212)">
    <path
       style="fill:#000000"
       d="m -174.05369,983.02212 0,-189 519.5,0 519.5,0 0,189 0,188.99998 -519.5,0 -519.5,0 0,-188.99998 z"
       id="path3426"
       inkscape:connector-curvature="0" />
    <path
       style="fill:#ffffff"
       d="m 484.94631,1072.6397 c 23.375,-4.6474 45.875,-8.9932 50,-9.6573 7.31153,-1.1771 9.02035,-0.9795 68,7.8646 33.275,4.9896 61.85,9.2078 63.5,9.3736 1.65,0.1658 27.86053,-4.8735 58.24562,-11.1985 l 55.24562,-11.5 0.004,-87.24998 c 0.002,-47.9875 -0.3199,-87.25 -0.71623,-87.25 -0.91357,0 -61.93648,12.75379 -85.77939,17.92789 -9.9,2.14838 -19.35,4.1793 -21,4.51315 -2.86069,0.57882 -46.5724,-5.88029 -108.16376,-15.98295 l -27.16375,-4.4556 -17.83625,4.06849 c -45.72715,10.43047 -85.09714,18.92762 -87.70075,18.92829 -2.48872,6.3e-4 -26.17928,-4.95075 -87.80199,-18.35084 l -15.66651,-3.40674 -23.79756,5.40233 c -13.08867,2.97129 -37.31374,8.27921 -53.8335,11.79538 l -30.03555,6.39304 -13.5,-2.34412 c -7.425,-1.28927 -27,-4.63606 -43.5,-7.43732 -16.5,-2.80126 -36.22456,-6.28201 -43.83236,-7.73501 l -13.83237,-2.64182 -30.667632,8.6476 c -16.8672,4.75618 -34.26764,9.5757 -38.66764,10.71004 -4.4,1.13434 -9.88814,2.74415 -12.19586,3.57735 -3.98628,1.43924 -5.1351,1.33427 -23.0000004,-2.10158 -28.0582996,-5.39628 -35.5340196,-6.90899 -61.8041396,-12.50605 -13.2,-2.81237 -25.4625,-5.3721 -27.25,-5.6883 l -3.25,-0.57491 0,85.13084 0,85.13082 2.631334,0 c 1.447234,0 26.759736,3.6644 56.249996,8.143 50.16502,7.6185 54.06955,8.0751 60.61867,7.0895 8.32783,-1.2533 44.44902,-8.0126 64.8402,-12.1334 l 14.513012,-2.9329 28.82339,3.8786 c 35.9686,4.8401 60.70743,8.5016 74.41555,11.0139 12.78611,2.3434 15.65059,2.3892 25.09247,0.4007 9.43339,-1.9866 63.16201,-11.788 76.81538,-14.0129 l 10.5,-1.711 23.5,4.5675 c 12.925,2.5122 28,5.2751 33.5,6.1398 5.5,0.8647 12.025,2.0305 14.5,2.5907 2.475,0.5602 10.7629,2.1323 18.41755,3.4934 7.65465,1.3612 14.17965,2.7496 14.5,3.0854 1.36555,1.4315 17.16114,-1.0575 57.08245,-8.9947 z"
       id="path3424"
       inkscape:connector-curvature="0" />
    <g
       id="g3505">
      <path
         id="path3422"
         d="m 428.23117,1077.9375 c -1.21833,-0.4538 -9.99333,-2.1987 -19.5,-3.8775 -42.89092,-7.574 -51.99648,-9.31 -62.78486,-11.9697 -6.325,-1.5594 -12.7375,-3.1212 -14.25,-3.4707 l -2.75,-0.6356 0,-83.58934 0,-83.58936 2.25,0.54915 c 4.0482,0.98802 69.8961,15.48499 84.69994,18.64741 7.94747,1.69775 14.68235,3.31922 14.9664,3.60327 0.85807,0.85807 1.20559,152.44637 0.3646,159.03727 -0.7373,5.7783 -0.90472,6.0742 -2.99608,5.2951 z"
         style="fill:#c41f25;fill-opacity:1"
         inkscape:connector-curvature="0" />
      <path
         id="path3416"
         d="m 434.95787,997.20527 c 0.0244,-63.18566 0.31189,-82.20813 1.26005,-83.38603 0.79796,-0.9913 18.57327,-5.43617 50.72839,-12.68508 27.225,-6.13747 49.8375,-11.14847 50.25,-11.13554 0.4125,0.0129 0.74906,38.161 0.74791,84.7735 l -0.002,84.74998 -17.74791,3.3736 c -9.76135,1.8555 -31.92291,6.0051 -49.24791,9.2213 -17.325,3.2163 -32.51703,6.0954 -33.76006,6.398 l -2.26006,0.5503 0.0317,-81.86003 z"
         style="fill:#23408a;fill-opacity:1"
         inkscape:connector-curvature="0" />
      <path
         id="path3410"
         d="m 648.44631,1074.3723 c -9.35,-1.3233 -26,-3.7861 -37,-5.4727 -11,-1.6866 -25.4,-3.8803 -32,-4.8749 -14.43836,-2.1758 -32.14989,-4.9886 -35.25,-5.5982 l -2.25,-0.4425 0,-83.61177 0,-83.61179 3.75,0.65193 c 2.0625,0.35856 19.05,3.09936 37.75,6.09066 44.47439,7.11424 82.77885,13.46394 83.08448,13.77285 0.13399,0.13543 0.57411,37.48374 0.97804,82.99624 0.62655,70.59618 0.52902,82.73208 -0.66405,82.62818 -0.76916,-0.067 -9.04847,-1.2046 -18.39847,-2.528 z"
         style="fill:#c41f25;fill-opacity:1"
         inkscape:connector-curvature="0" />
      <path
         id="path3406"
         d="m 671.19052,993.34176 0.25579,-82.81882 19.5,-4.10355 c 10.725,-2.25696 33.61325,-7.09464 50.86278,-10.75041 17.24952,-3.65577 31.98702,-6.64686 32.75,-6.64686 1.17173,0 1.38722,12.79178 1.38722,82.34783 l 0,82.34785 -14.75,3.1047 c -66.81908,14.0647 -86.9875,18.3507 -88.50579,18.8086 -1.66595,0.5024 -1.74271,-3.7084 -1.5,-82.28934 z"
         style="fill:#23408a;fill-opacity:1"
         inkscape:connector-curvature="0" />
      <path
         id="path3400"
         d="m 201.94631,1072.5451 c -7.975,-1.2367 -25.75,-3.8794 -39.5,-5.8728 -13.75,-1.9934 -31.86989,-4.83 -40.26642,-6.3037 l -15.26642,-2.6794 0.0504,-81.34405 0.0504,-81.34406 2.21599,0.4741 c 4.30272,0.92055 18.2732,3.43918 22.71599,4.0953 2.475,0.3655 13.275,2.37785 24,4.47188 10.725,2.09403 29.175,5.46265 41,7.48583 11.825,2.02318 21.95,4.10925 22.5,4.63571 0.64536,0.61775 1.10092,28.95596 1.28458,79.90771 l 0.28464,78.95048 -2.28458,-0.1143 c -1.25652,-0.063 -8.80958,-1.1261 -16.78458,-2.3627 z"
         style="fill:#c41f25;fill-opacity:1"
         inkscape:connector-curvature="0" />
      <path
         id="path3396"
         d="m 224.68786,1045.2721 c -0.41621,-33.5071 -0.0621,-131.26274 0.47741,-131.80228 0.19321,-0.1932 12.03548,-2.84926 26.31617,-5.90235 14.28068,-3.05308 36.16013,-7.86413 48.621,-10.69122 12.46087,-2.82708 23.32967,-4.88169 24.15289,-4.56579 1.31398,0.50422 1.4781,10.62587 1.34388,82.8788 l -0.1529,82.30444 -12.5,2.1948 c -6.875,1.2071 -24.425,4.2717 -39,6.8102 -14.575,2.5385 -31.13534,5.4947 -36.80076,6.5694 -5.66542,1.0747 -10.70293,1.954 -11.19446,1.954 -0.49661,0 -1.05788,-13.2183 -1.26323,-29.75 z"
         style="fill:#23408a;fill-opacity:1"
         inkscape:connector-curvature="0" />
      <path
         id="path3392"
         d="m 9.9463076,1072.9948 c -2.475,-0.4356 -15.525,-2.4166 -28.9999996,-4.4022 -21.48556,-3.1659 -60.416941,-9.6318 -66.70529,-11.0787 l -2.205291,-0.5074 -0.06566,-80.01652 -0.06566,-80.01648 2.270946,0.54886 c 2.274248,0.54965 103.963505,20.49976 104.490945,20.49976 0.154,0 0.28001,35.1 0.28001,78 l 0,77.99998 -2.25,-0.1176 c -1.2375,-0.065 -4.275,-0.4741 -6.7500004,-0.9097 z"
         style="fill:#c41f25;fill-opacity:1"
         inkscape:connector-curvature="0" />
      <path
         id="path3388"
         d="m 22.946308,995.6387 0,-78.38343 2.25,-0.48285 c 1.2375,-0.26557 13.95,-3.739 28.25,-7.71874 30.86394,-8.58953 47.443772,-13.03156 48.640172,-13.03156 0.49028,0 0.75956,35.96343 0.61564,82.22108 l -0.25581,82.2211 -8.500002,1.7407 c -23.09674,4.73 -64.57579,11.8171 -69.16287,11.8171 -1.76721,0 -1.83713,-2.983 -1.83713,-78.3834 z"
         style="fill:#23408a;fill-opacity:1"
         inkscape:connector-curvature="0" />
    </g>
    <g
       id="g3495">
      <path
         id="path3420"
         d="m 418.51294,1043.5256 c -0.36077,-1.9231 -3.56085,-12.703 -7.11129,-23.9555 -3.55044,-11.2525 -6.45534,-21.5194 -6.45534,-22.81544 0,-1.4452 1.13095,-3.19257 2.92465,-4.51871 1.60856,-1.18926 4.42106,-5.20071 6.25,-8.91434 2.77745,-5.63954 3.38305,-8.10544 3.67552,-14.96615 0.47007,-11.02678 -1.48481,-16.79827 -7.93165,-23.417 -5.43638,-5.58132 -13.74416,-9.79743 -23.41852,-11.88465 -9.54998,-2.06039 -34.92638,-5.8727 -35.75,-5.37074 -0.4125,0.25139 -0.75,24.72195 -0.75,54.37901 l 0,53.92192 2.25,0.5168 c 1.2375,0.2842 6.27082,1.1971 11.18515,2.0285 9.30596,1.5744 10.72361,1.2342 10.44589,-2.5072 -0.0612,-0.825 -0.0595,-9.4875 0.004,-19.25 l 0.11496,-17.74998 3.4026,0 c 3.88174,0 3.37195,-1.24415 11.67782,28.49998 2.30377,8.25 4.30743,15.1418 4.4526,15.3152 0.25124,0.2999 21.47112,3.8582 24.32827,4.0794 1.02249,0.079 1.19804,-0.7648 0.70534,-3.3911 z"
         style="fill:#ffffff"
         inkscape:connector-curvature="0" />
      <path
         id="path3414"
         d="m 458.25073,1047.9891 c 4.22167,-0.681 8.06557,-1.7397 8.54198,-2.3526 0.47642,-0.6129 1.67532,-5.1644 2.66422,-10.1144 0.98889,-4.95 2.18068,-9.4296 2.64841,-9.9547 0.84546,-0.9492 16.53681,-4.8771 24.5185,-6.1375 l 4.17753,-0.6598 1.03646,3.876 c 0.57006,2.1318 1.53909,6.2345 2.15341,9.117 0.61432,2.8826 1.42419,5.4309 1.79972,5.663 0.93665,0.5789 20.45288,-3.3993 21.48788,-4.3801 0.45789,-0.4339 0.10354,-4.7793 -0.78744,-9.6564 -2.83308,-15.508 -18.83874,-95.85112 -19.17706,-96.26257 -0.30619,-0.37237 -20.96911,3.73002 -31.85088,6.32364 l -4.98284,1.18763 -1.73774,8.44191 c -0.95576,4.64305 -4.94189,24.41691 -8.85807,43.94191 -3.91618,19.52498 -8.20441,40.15238 -9.52941,45.83868 -2.74256,11.7697 -3.12411,17.6497 -1.09476,16.8709 0.72288,-0.2774 4.76842,-1.0615 8.99009,-1.7426 z"
         style="fill:#ffffff"
         inkscape:connector-curvature="0" />
      <path
         id="path3408"
         d="m 651.94631,991.58114 c 0,-29.94254 -0.38507,-54.67897 -0.8557,-54.96984 -0.47064,-0.29087 -6.80906,-1.51931 -14.08539,-2.72988 -10.66373,-1.77413 -13.38483,-1.94998 -14.02963,-0.90668 -0.43997,0.71189 -3.57732,11.92628 -6.9719,24.92086 -7.13004,27.29413 -7.96668,30.12652 -8.89883,30.12652 -0.37748,0 -3.31914,-13.48769 -6.53701,-29.97264 -3.21787,-16.48494 -6.36162,-30.3827 -6.9861,-30.8839 -0.95931,-0.76992 -30.30653,-6.14346 -33.55207,-6.14346 -0.76481,0 -1.08337,16.31408 -1.08337,55.48095 l 0,55.48093 2.25,0.511 c 8.50313,1.931 11.58081,2.4812 14,2.5027 l 2.75,0.025 0,-30.2 c 0,-18.56408 0.35716,-29.834 0.92698,-29.25003 0.50985,0.5225 3.45353,14.44618 6.54153,30.94153 3.08799,16.4953 5.98405,30.361 6.43569,30.8127 1.01905,1.019 18.0949,4.03 18.80844,3.3165 0.28552,-0.2856 3.87761,-13.2545 7.98243,-28.82 4.10481,-15.56538 7.88086,-28.73143 8.39122,-29.25783 0.57101,-0.58898 0.82903,10.94981 0.67081,30.00003 l -0.2571,30.9571 8.5,1.1147 c 4.675,0.6131 10.1875,1.1756 12.25,1.25 l 3.75,0.1353 0,-54.44101 z"
         style="fill:#ffffff"
         inkscape:connector-curvature="0" />
      <path
         id="path3404"
         d="m 696.59333,1044.5294 c 3.93087,-0.8201 7.84818,-1.7601 8.70514,-2.0889 1.40949,-0.5409 2.89012,-4.4972 5.38352,-14.3851 l 0.87419,-3.4666 13.44506,-3.2395 c 7.39479,-1.7817 13.96171,-3.0659 14.59317,-2.8538 0.63145,0.2121 1.94794,3.9049 2.92553,8.2061 0.97758,4.3013 2.03594,8.1322 2.3519,8.5131 0.31596,0.381 5.29947,-0.3279 11.07447,-1.5752 12.32805,-2.6626 11.55316,0.1097 6.46147,-23.1174 -12.3266,-56.23101 -18.29137,-82.66321 -18.75974,-83.13158 -0.66127,-0.66128 -25.97199,4.47596 -26.79391,5.43827 -0.74332,0.8703 -27.90782,109.54621 -27.90782,111.64971 0,0.849 0.1125,1.5432 0.25,1.5428 0.1375,-5e-4 3.46616,-0.6718 7.39702,-1.4919 z"
         style="fill:#ffffff"
         inkscape:connector-curvature="0" />
      <path
         id="path3398"
         d="m 202.705,992.27212 -0.25869,-53.75 -8.92412,-1.74255 c -4.90826,-0.9584 -9.18326,-1.48417 -9.5,-1.16836 -0.31673,0.3158 -0.80088,13.24994 -1.07588,28.74254 l -0.5,28.16837 -9.86194,-29.5 c -5.42407,-16.225 -10.2156,-30.14943 -10.64786,-30.94318 -0.49157,-0.90266 -5.22503,-2.27635 -12.63806,-3.66768 -6.51868,-1.22346 -13.31464,-2.54278 -15.10214,-2.93181 l -3.25,-0.70733 -0.1069,49.375 c -0.0588,27.15628 -0.21975,51.30598 -0.35768,53.66598 -0.29059,4.9721 0.0394,5.2418 9.29535,7.5977 11.29848,2.8757 10.16923,6.315 10.16923,-30.972 0,-23.15836 0.31667,-32.47779 1.09478,-32.21842 0.60213,0.20071 6.12469,15.52578 12.27237,34.05572 6.14768,18.5299 11.61753,34.1235 12.15522,34.6524 0.99589,0.9797 19.72058,4.7405 24.73632,4.9683 l 2.75868,0.1253 -0.25868,-53.74998 z"
         style="fill:#ffffff"
         inkscape:connector-curvature="0" />
      <path
         id="path3394"
         d="m 267.44631,1039.547 c 8.25,-1.419 20.0625,-3.5164 26.25,-4.6608 l 11.25,-2.0809 0,-9.3916 c 0,-8.2684 -0.20929,-9.3945 -1.75,-9.4159 -0.9625,-0.013 -7.6991,0.975 -14.97022,2.1964 -7.27111,1.2215 -13.48746,1.9536 -13.8141,1.6269 -0.32663,-0.3266 -0.85477,-5.5391 -1.17363,-11.5834 -0.67523,-12.79947 -2.4766,-11.10718 15.11153,-14.19652 6.54697,-1.14997 12.28447,-2.32626 12.75,-2.61398 0.46553,-0.28771 0.84642,-4.78013 0.84642,-9.98315 0,-9.30876 -0.036,-9.45113 -2.25,-8.90308 -3.17739,0.78652 -25.74556,4.15148 -26.02168,3.87988 -0.12557,-0.12352 -0.0903,-5.60393 0.0784,-12.1787 l 0.30672,-11.95412 14.19328,-2.94758 14.19328,-2.94759 0.25516,-8.43537 c 0.14033,-4.63945 -0.0937,-8.9696 -0.5202,-9.62255 -0.5801,-0.88824 -5.8064,-0.20116 -20.75515,2.72861 -10.9889,2.15368 -22.82924,4.46531 -26.31189,5.13695 -3.48264,0.67164 -6.9006,1.69377 -7.59546,2.27139 -1.00916,0.83889 -1.08406,11.41366 -0.37222,52.55023 0.49014,28.32498 1.09338,52.09348 1.34054,52.81898 0.24715,0.7254 1.23909,1.0865 2.20429,0.8024 0.96521,-0.2841 8.50493,-1.6775 16.75493,-3.0965 z"
         style="fill:#ffffff"
         inkscape:connector-curvature="0" />
      <path
         id="path3390"
         d="m -22.869762,1038.6531 c 11.29591,-2.6585 21.4408296,-11.5718 26.3691896,-23.1677 1.51627,-3.5677 2.57461,-6.5939 2.35186,-6.725 -0.86375,-0.5083 -19.4422596,-6.7494 -20.0755196,-6.744 -0.3688,0 -0.98622,1.4682 -1.37204,3.2557 -3.37891,15.6544 -15.80105,19.5411 -24.42142,7.641 -3.81951,-5.2727 -5.43005,-12.96052 -5.42395,-25.89098 0.007,-14.03716 2.43289,-23.9371 7.14462,-29.15242 4.08428,-4.52081 9.44387,-6.49886 13.45249,-4.96486 3.55907,1.36196 7.48838,7.43196 9.04041,13.96564 1.05889,4.45768 1.546,5.17483 3.24807,4.78191 1.1013,-0.25423 5.4898596,-1.22021 9.7523596,-2.14663 8.73665,-1.89884 8.7168,-1.86509 6.16004,-10.47462 -5.01123,-16.87464 -20.5864896,-28.28415 -36.1624396,-26.49045 -6.91936,0.79682 -16.47476,4.98596 -21.56263,9.45317 -4.95849,4.35361 -10.06098,13.72963 -12.80424,23.52826 -1.78661,6.38161 -2.24389,10.62989 -2.26039,21 -0.0237,14.88898 1.40035,21.66098 6.77475,32.21718 5.8045,11.401 10.10111,15.3701 20.10491,18.5728 9.0715,2.9041 12.15103,3.1139 19.68393,1.341 z"
         style="fill:#ffffff"
         inkscape:connector-curvature="0" />
      <path
         id="path3384"
         d="m 62.707078,1040.4607 c 5.35657,-0.8587 10.10515,-1.9221 10.55238,-2.3631 0.94595,-0.9327 0.50121,-108.59657 -0.45253,-109.54904 -0.70539,-0.70445 -10.65706,1.61553 -18.17914,4.23801 l -4.81852,1.67992 0.64648,52.52781 c 0.35556,28.8903 0.82227,53.0903 1.03714,53.7778 0.47915,1.5332 -0.45272,1.5591 11.21419,-0.3114 z"
         style="fill:#ffffff"
         inkscape:connector-curvature="0" />
    </g>
    <g
       id="g3481">
      <path
         id="path3412"
         d="m 475.94631,1002.5205 c 0,-0.276 1.98203,-10.51345 4.40451,-22.75004 2.42248,-12.23659 4.71716,-24.19116 5.09928,-26.56572 0.38213,-2.37457 0.89464,-4.11752 1.13893,-3.87323 0.42561,0.4256 4.20325,18.09072 8.36578,39.1203 1.081,5.46133 1.78531,10.10983 1.56513,10.33001 -0.49994,0.49995 -17.50057,4.24028 -19.27297,4.24028 -0.71536,0 -1.30066,-0.2257 -1.30066,-0.5016 z"
         style="fill:#23408a;fill-opacity:1"
         inkscape:connector-curvature="0" />
      <path
         id="path3402"
         d="m 716.63191,1004.2721 c -0.41777,-0.7245 9.83091,-45.09982 10.59173,-45.86064 0.35856,-0.35856 8.91573,37.59158 9.12308,40.45989 0.0814,1.1259 -8.23682,3.78805 -19.09139,6.10995 -0.10504,0.022 -0.38558,-0.2967 -0.62342,-0.7092 z"
         style="fill:#23408a;fill-opacity:1"
         inkscape:connector-curvature="0" />
    </g>
    <path
       style="fill:#c41f25;fill-opacity:1"
       d="m 375.20808,981.77212 c -0.60174,-0.7651 -0.79169,-7.789 -0.48966,-18.10657 l 0.49346,-16.85658 4.02588,0.64376 c 9.20242,1.47153 13.70855,7.52544 13.70855,18.41723 0,11.05374 -4.44877,17.15216 -12.51241,17.15216 -2.33349,0 -4.6851,-0.5625 -5.22582,-1.25 z"
       id="path3418"
       inkscape:connector-curvature="0" />
  </g>
</svg>
