<svg fill='white' id="gallery" enable-background="new 0 0 300 300" height="512" viewBox="0 0 300 300" width="512" xmlns="http://www.w3.org/2000/svg"><g><path d="m38 126h64c2.211 0 4-1.791 4-4v-68c0-2.209-1.789-4-4-4h-64c-2.211 0-4 1.791-4 4v68c0 2.209 1.789 4 4 4zm4-8v-4h56v4zm6.113-12 12.141-11.383 19.008 7.129c1.57.584 3.324.141 4.422-1.119l14.316-16.447v21.82zm49.887-48v13.997l-18.527 21.282-18.734-7.025c-1.422-.527-3.031-.213-4.141.828l-14.598 13.686v-42.768z"/><path d="m56 82c5.516 0 10-4.486 10-10s-4.484-10-10-10-10 4.486-10 10 4.484 10 10 10zm0-12c1.102 0 2 .896 2 2s-.898 2-2 2-2-.896-2-2 .898-2 2-2z"/><path d="m102 210c2.211 0 4-1.791 4-4v-68c0-2.209-1.789-4-4-4h-64c-2.211 0-4 1.791-4 4v68c0 2.209 1.789 4 4 4zm-60-8v-4h56v4zm6.113-12 12.141-11.383 19.008 7.129c1.57.586 3.324.141 4.422-1.119l14.316-16.447v21.82zm49.887-48v13.997l-18.527 21.282-18.734-7.025c-1.422-.525-3.031-.211-4.141.828l-14.598 13.686v-42.768z"/><path d="m56 166c5.516 0 10-4.486 10-10s-4.484-10-10-10-10 4.486-10 10 4.484 10 10 10zm0-12c1.102 0 2 .896 2 2s-.898 2-2 2-2-.896-2-2 .898-2 2-2z"/><path d="m182 50h-64c-2.211 0-4 1.791-4 4v68c0 2.209 1.789 4 4 4h64c2.211 0 4-1.791 4-4v-68c0-2.209-1.789-4-4-4zm-4 8v13.997l-18.527 21.282-18.734-7.025c-1.418-.527-3.031-.213-4.141.828l-14.598 13.686v-42.768zm0 26.18v21.82h-49.887l12.141-11.383 19.008 7.129c1.562.584 3.324.141 4.422-1.119zm-56 33.82v-4h56v4z"/><path d="m136 82c5.516 0 10-4.486 10-10s-4.484-10-10-10-10 4.486-10 10 4.484 10 10 10zm0-12c1.102 0 2 .896 2 2s-.898 2-2 2-2-.896-2-2 .898-2 2-2z"/><path d="m262 50h-64c-2.211 0-4 1.791-4 4v68c0 2.209 1.789 4 4 4h64c2.211 0 4-1.791 4-4v-68c0-2.209-1.789-4-4-4zm-4 8v13.997l-18.527 21.282-18.734-7.025c-1.422-.527-3.027-.213-4.141.828l-14.598 13.686v-42.768zm0 26.18v21.82h-49.887l12.141-11.383 19.008 7.129c1.566.584 3.328.141 4.422-1.119zm-56 33.82v-4h56v4z"/><path d="m216 82c5.516 0 10-4.486 10-10s-4.484-10-10-10-10 4.486-10 10 4.484 10 10 10zm0-12c1.102 0 2 .896 2 2s-.898 2-2 2-2-.896-2-2 .898-2 2-2z"/><path d="m262 134h-64c-2.211 0-4 1.791-4 4v68c0 2.209 1.789 4 4 4h64c2.211 0 4-1.791 4-4v-68c0-2.209-1.789-4-4-4zm-4 8v13.997l-18.527 21.282-18.734-7.025c-1.422-.525-3.027-.211-4.141.828l-14.598 13.686v-42.768zm0 26.18v21.82h-49.887l12.141-11.383 19.008 7.129c1.566.586 3.328.141 4.422-1.119zm-56 33.82v-4h56v4z"/><path d="m216 166c5.516 0 10-4.486 10-10s-4.484-10-10-10-10 4.486-10 10 4.484 10 10 10zm0-12c1.102 0 2 .896 2 2s-.898 2-2 2-2-.896-2-2 .898-2 2-2z"/><path d="m182 134h-64c-2.211 0-4 1.791-4 4v68c0 2.209 1.789 4 4 4h64c2.211 0 4-1.791 4-4v-68c0-2.209-1.789-4-4-4zm-4 68h-56v-60h56z"/><path d="m135.895 178.586-2.008 6.172c-.949 2.916.078 6.088 2.559 7.891 1.242.902 2.695 1.354 4.152 1.354 1.453 0 2.906-.451 4.148-1.352l5.254-3.818 5.254 3.818c2.488 1.805 5.82 1.799 8.301-.002 2.48-1.803 3.508-4.975 2.559-7.887l-2.008-6.176 5.258-3.82c2.48-1.803 3.512-4.975 2.562-7.891s-3.645-4.875-6.711-4.875h-6.496l-2.008-6.178c-.949-2.916-3.645-4.875-6.711-4.875s-5.766 1.959-6.711 4.875l-2.008 6.178h-6.496c-3.066 0-5.762 1.959-6.711 4.875s.082 6.088 2.562 7.891zm6.074-8.586c3.062 0 5.758-1.957 6.711-4.875l1.32-4.066 1.32 4.07c.953 2.914 3.648 4.871 6.711 4.871h4.281l-3.457 2.512c-2.488 1.805-3.52 4.977-2.57 7.893l1.32 4.066-3.457-2.514c-2.484-1.801-5.812-1.801-8.297 0l-3.457 2.514 1.32-4.064c.949-2.918-.082-6.09-2.566-7.893l-3.46-2.514z"/><path d="m130 222c0-2.209-1.789-4-4-4h-84c-2.211 0-4 1.791-4 4s1.789 4 4 4h84c2.211 0 4-1.791 4-4z"/><path d="m42 230c-2.211 0-4 1.791-4 4s1.789 4 4 4h32c2.211 0 4-1.791 4-4s-1.789-4-4-4z"/><path d="m146 230h-56c-2.211 0-4 1.791-4 4s1.789 4 4 4h56c2.211 0 4-1.791 4-4s-1.789-4-4-4z"/><path d="m110 242h-68c-2.211 0-4 1.791-4 4s1.789 4 4 4h68c2.211 0 4-1.791 4-4s-1.789-4-4-4z"/></g></svg>