<svg viewBox="0 0 119 28" fill="none" xmlns="http://www.w3.org/2000/svg" width="110" height="30"><path d="M38.2764 3.97426C38.2764 4.79633 38.0217 5.45473 37.52 5.94575C36.9432 6.52785 36.1919 6.82074 35.2713 6.82074C34.3914 6.82074 33.6401 6.52293 33.0238 5.93591C32.4062 5.34028 32.0981 4.60927 32.0981 3.73429C32.0981 2.8593 32.4062 2.12829 33.0238 1.53758C33.6401 0.945643 34.3914 0.647827 35.2713 0.647827C35.7093 0.647827 36.127 0.735203 36.5255 0.897648C36.9228 1.06132 37.2463 1.28284 37.4806 1.55604L36.9483 2.07538C36.5395 1.60896 35.9831 1.37883 35.2713 1.37883C34.6295 1.37883 34.0731 1.59542 33.6006 2.0323C33.1333 2.47041 32.899 3.03774 32.899 3.73429C32.899 4.43083 33.1333 5.00308 33.6006 5.44119C34.0731 5.87315 34.6295 6.09466 35.2713 6.09466C35.9525 6.09466 36.5255 5.87315 36.9776 5.43627C37.2755 5.14707 37.4449 4.74834 37.4895 4.23885H35.2713V3.52754H38.2306C38.2662 3.68137 38.2764 3.83028 38.2764 3.97426Z" fill="white" stroke="white" stroke-width="0.625"></path><path d="M42.9713 1.50805H40.1915V3.37863H42.6975V4.08995H40.1915V5.96053H42.9713V6.68538H39.4046V0.783203H42.9713V1.50805Z" fill="white" stroke="white" stroke-width="0.625"></path><path d="M46.2846 6.68538H45.4976V1.50805H43.7926V0.783203H47.9909V1.50805H46.2846V6.68538Z" fill="white" stroke="white" stroke-width="0.625"></path><path d="M51.0291 6.68538V0.783203H51.8147V6.68538H51.0291Z" fill="white" stroke="white" stroke-width="0.625"></path><path d="M55.2973 6.68538H54.5167V1.50805H52.8054V0.783203H57.0087V1.50805H55.2973V6.68538Z" fill="white" stroke="white" stroke-width="0.625"></path><path fill-rule="evenodd" clip-rule="evenodd" d="M62.7184 6.82074C63.6085 6.82074 64.3547 6.52293 64.957 5.92606C65.558 5.33043 65.8573 4.59943 65.8573 3.73429C65.8573 2.87406 65.558 2.14798 64.9519 1.54743C64.3496 0.945643 63.6034 0.647827 62.7184 0.647827C61.8233 0.647827 61.0771 0.945643 60.4748 1.54251C59.8738 2.13814 59.5745 2.86914 59.5745 3.73429C59.5745 4.59943 59.8738 5.33043 60.4748 5.92606C61.0771 6.52293 61.8233 6.82074 62.7184 6.82074ZM62.7184 6.09466C62.0614 6.09466 61.51 5.87315 61.0567 5.43134C60.6047 4.98954 60.3755 4.42222 60.3755 3.73429C60.3755 3.04635 60.6047 2.47903 61.0567 2.03723C61.51 1.59542 62.0614 1.37391 62.7184 1.37391C63.3704 1.37391 63.9268 1.59542 64.3751 2.03723C64.8271 2.47903 65.0563 3.04635 65.0563 3.73429C65.0563 4.42222 64.8271 4.98954 64.3751 5.43134C63.9268 5.87315 63.3704 6.09466 62.7184 6.09466Z" fill="white"></path><path d="M64.957 5.92606L65.177 6.14803L65.177 6.14803L64.957 5.92606ZM64.9519 1.54743L64.731 1.7685L64.7319 1.76942L64.9519 1.54743ZM60.4748 1.54251L60.2548 1.32054L60.2548 1.32054L60.4748 1.54251ZM60.4748 5.92606L60.2548 6.14803L60.2548 6.14803L60.4748 5.92606ZM61.0567 5.43134L60.8383 5.65483L60.8386 5.65514L61.0567 5.43134ZM61.0567 2.03723L60.8386 1.81343L60.8383 1.81374L61.0567 2.03723ZM64.3751 2.03723L64.1557 2.25979L64.1566 2.26071L64.3751 2.03723ZM64.3751 5.43134L64.1566 5.20786L64.1557 5.20879L64.3751 5.43134ZM64.737 5.70409C64.1965 6.23973 63.5308 6.50824 62.7184 6.50824V7.13324C63.6862 7.13324 64.5129 6.80613 65.177 6.14803L64.737 5.70409ZM65.5448 3.73429C65.5448 4.51857 65.2771 5.16889 64.737 5.7041L65.177 6.14803C65.839 5.49197 66.1698 4.68029 66.1698 3.73429H65.5448ZM64.7319 1.76942C65.2779 2.31037 65.5448 2.95614 65.5448 3.73429H66.1698C66.1698 2.79199 65.8381 1.9856 65.1718 1.32544L64.7319 1.76942ZM62.7184 0.960327C63.5253 0.960327 64.1906 1.22852 64.731 1.76849L65.1728 1.32636C64.5086 0.662766 63.6815 0.335327 62.7184 0.335327V0.960327ZM60.6948 1.76448C61.2351 1.22902 61.9007 0.960327 62.7184 0.960327V0.335327C61.7459 0.335327 60.9191 0.662263 60.2548 1.32054L60.6948 1.76448ZM59.887 3.73429C59.887 2.95 60.1547 2.29968 60.6948 1.76447L60.2548 1.32054C59.5928 1.9766 59.262 2.78828 59.262 3.73429H59.887ZM60.6948 5.7041C60.1547 5.16889 59.887 4.51857 59.887 3.73429H59.262C59.262 4.68029 59.5928 5.49197 60.2548 6.14803L60.6948 5.7041ZM62.7184 6.50824C61.9007 6.50824 61.2351 6.23955 60.6948 5.70409L60.2548 6.14803C60.9191 6.80631 61.7459 7.13324 62.7184 7.13324V6.50824ZM60.8386 5.65514C61.3522 6.15566 61.9826 6.40716 62.7184 6.40716V5.78216C62.1402 5.78216 61.6679 5.59063 61.2748 5.20755L60.8386 5.65514ZM60.063 3.73429C60.063 4.4989 60.321 5.14923 60.8383 5.65483L61.2751 5.20786C60.8884 4.82985 60.688 4.34553 60.688 3.73429H60.063ZM60.8383 1.81374C60.321 2.31934 60.063 2.96967 60.063 3.73429H60.688C60.688 3.12304 60.8884 2.63872 61.2751 2.26071L60.8383 1.81374ZM62.7184 1.06141C61.9826 1.06141 61.3522 1.31291 60.8386 1.81343L61.2748 2.26102C61.6679 1.87794 62.1402 1.68641 62.7184 1.68641V1.06141ZM64.5944 1.81467C64.085 1.3125 63.4485 1.06141 62.7184 1.06141V1.68641C63.2923 1.68641 63.7687 1.87835 64.1557 2.25978L64.5944 1.81467ZM65.3688 3.73429C65.3688 2.96967 65.1108 2.31934 64.5935 1.81374L64.1566 2.26071C64.5434 2.63872 64.7438 3.12304 64.7438 3.73429H65.3688ZM64.5935 5.65483C65.1108 5.14923 65.3688 4.4989 65.3688 3.73429H64.7438C64.7438 4.34553 64.5434 4.82985 64.1566 5.20786L64.5935 5.65483ZM62.7184 6.40716C63.4485 6.40716 64.085 6.15607 64.5944 5.6539L64.1557 5.20879C63.7687 5.59022 63.2923 5.78216 62.7184 5.78216V6.40716Z" fill="white"></path><path d="M66.9612 6.68538V0.783203H67.9163L70.8857 5.37351H70.9201L70.8857 4.23885V0.783203H71.6714V6.68538H70.8513L67.7418 1.86863H67.7074L67.7418 3.00821V6.68538H66.9612H66.9612Z" fill="white" stroke="white" stroke-width="0.625"></path><path fill-rule="evenodd" clip-rule="evenodd" d="M71.0246 16.2376H70.9609C70.533 15.7478 69.7168 15.3048 68.6829 15.3048C66.5131 15.3048 64.5292 17.1458 64.5292 19.5062C64.5292 21.8531 66.5131 23.6793 68.6829 23.6793C69.7168 23.6793 70.533 23.2326 70.9609 22.7281H71.0246V23.3286C71.0246 24.9297 70.1396 25.7899 68.7121 25.7899C67.5483 25.7899 66.8263 24.9777 66.5283 24.2947L64.8717 24.9629C65.3492 26.0729 66.6137 27.439 68.7121 27.439C70.9456 27.439 72.8302 26.1689 72.8302 23.0788V15.5595H71.0246V16.2376ZM38.6088 16.5884V18.3679H43.0057C42.8771 19.3622 42.5333 20.0932 42.0061 20.6027C41.3643 21.2181 40.3647 21.9011 38.6088 21.9011C35.9029 21.9011 33.784 19.7905 33.784 17.1754C33.784 14.5603 35.9029 12.4497 38.6088 12.4497C40.0719 12.4497 41.1364 13.0023 41.922 13.7185L43.2196 12.4645C42.1207 11.4504 40.6589 10.6714 38.6088 10.6714C34.8982 10.6714 31.7798 13.5893 31.7798 17.1754C31.7798 20.7615 34.8982 23.6793 38.6088 23.6793C40.6143 23.6793 42.1207 23.0443 43.3049 21.8531C44.5184 20.6803 44.8966 19.0312 44.8966 17.6996C44.8966 17.2861 44.8609 16.9059 44.7973 16.5884H38.6088ZM49.8958 15.3048C47.4981 15.3048 45.5486 17.0646 45.5486 19.4927C45.5486 21.9011 47.4981 23.6793 49.8958 23.6793C52.2922 23.6793 54.243 21.9011 54.243 19.4927C54.243 17.0646 52.2922 15.3048 49.8958 15.3048ZM55.0338 19.4927C55.0338 17.0646 56.9884 15.3048 59.381 15.3048C61.7787 15.3048 63.7333 17.0646 63.7333 19.4927C63.7333 21.9011 61.7787 23.6793 59.381 23.6793C56.9884 23.6793 55.0338 21.9011 55.0338 19.4927ZM56.9387 19.4927C56.9387 20.983 58.0682 22.0303 59.381 22.0303C60.6938 22.0303 61.8284 20.983 61.8284 19.4927C61.8284 17.9827 60.6938 16.9539 59.381 16.9539C58.0682 16.9539 56.9387 17.9827 56.9387 19.4927ZM47.4484 19.4927C47.4484 20.983 48.5817 22.0303 49.8958 22.0303C51.2086 22.0303 52.3381 20.983 52.3381 19.4927C52.3381 17.9827 51.2086 16.9539 49.8958 16.9539C48.5817 16.9539 47.4484 17.9827 47.4484 19.4927ZM81.0522 15.3048C83.301 15.3048 84.405 17.0314 84.7628 17.9679L84.9627 18.4442L79.1677 20.7615C79.6108 21.6032 80.3022 22.0303 81.2661 22.0303C82.2364 22.0303 82.9075 21.5688 83.4003 20.8722L84.8774 21.8235C84.405 22.5065 83.2564 23.6793 81.2661 23.6793C78.8047 23.6793 76.9686 21.8383 76.9686 19.4927C76.9686 17.0019 78.8238 15.3048 81.0522 15.3048ZM78.8544 19.3622C78.8047 17.7476 80.152 16.9206 81.1172 16.9206C81.8735 16.9206 82.5153 17.2861 82.7292 17.8092L78.8544 19.3622ZM76.0492 23.4246H74.1443V11.1181L76.0492 11.1181V23.4246ZM66.4341 19.5062C66.4341 20.9682 67.533 22.0303 68.8458 22.0303C70.1396 22.0303 71.1595 20.9682 71.1595 19.5062C71.1595 18.0307 70.1396 16.9539 68.8458 16.9539C67.533 16.9539 66.4341 18.0307 66.4341 19.5062ZM93.6813 11.1181H89.1253V23.4246H91.0251V18.7617H93.6813C95.7913 18.7617 97.8605 17.2861 97.8605 14.9393C97.8605 12.5937 95.7862 11.1181 93.6813 11.1181ZM91.0251 17.0499H93.731C95.1495 17.0499 95.9594 15.8918 95.9594 14.9393C95.9594 13.9683 95.1495 12.83 93.731 12.83H91.0251V17.0499ZM105.475 15.2814C104.102 15.2814 102.675 15.8672 102.088 17.1655L103.774 17.8485C104.137 17.1655 104.804 16.944 105.51 16.944C106.495 16.944 107.495 17.5163 107.51 18.5266V18.6559C107.166 18.4639 106.43 18.1796 105.525 18.1796C103.709 18.1796 101.859 19.1456 101.859 20.9485C101.859 22.5976 103.346 23.6597 105.018 23.6597C106.296 23.6597 107.002 23.1022 107.445 22.4536H107.51V23.4049L109.345 23.4049V18.6842C109.345 16.5022 107.659 15.2814 105.475 15.2814ZM103.759 20.983C103.759 21.7275 104.625 22.0254 105.246 22.0254C106.346 22.0254 107.361 21.2181 107.51 20.0785C107.002 19.8434 106.61 19.665 105.773 19.665C104.838 19.665 103.759 20.0305 103.759 20.983ZM116.03 15.5509L113.846 20.8858H113.781L111.524 15.5509H109.475L112.867 23.0062L110.931 27.1547H112.917L118.144 15.5509H116.03ZM100.81 23.4246H98.9046V11.1181H100.81V23.4246Z" fill="white"></path><path d="M0.602969 1.31109C0.30373 1.61382 0.130554 2.08516 0.130554 2.69556L0.130554 24.4681C0.130554 25.0785 0.30373 25.5499 0.602969 25.8526L0.676823 25.9191L13.3009 13.7234V13.4354L0.676823 1.23971L0.602969 1.31109Z" fill="url(#paint0_linear)"></path><path d="M17.5042 17.7906L13.3008 13.7234V13.4354L17.5093 9.36811L17.6035 9.42103L22.5874 12.1617C24.0097 12.9394 24.0097 14.2193 22.5874 15.002L17.6035 17.7377L17.5042 17.7906V17.7906Z" fill="url(#paint1_linear)"></path><path d="M17.6035 17.7377L13.3009 13.5794L0.602966 25.8526C1.07538 26.3326 1.84576 26.3904 2.72183 25.9105L17.6035 17.7377Z" fill="url(#paint2_linear)"></path><path d="M17.6035 9.42112L2.72183 1.2484C1.84576 0.773375 1.07538 0.831215 0.602966 1.31117L13.3009 13.5795L17.6035 9.42112Z" fill="url(#paint3_linear)"></path><defs><linearGradient id="paint0_linear" x1="7.77132" y1="40.7126" x2="-12.3481" y2="35.175" gradientUnits="userSpaceOnUse"><stop stop-color="#00A0FF"></stop><stop offset="0.0066" stop-color="#00A1FF"></stop><stop offset="0.2601" stop-color="#00BEFF"></stop><stop offset="0.5122" stop-color="#00D2FF"></stop><stop offset="0.7604" stop-color="#00DFFF"></stop><stop offset="1" stop-color="#00E3FF"></stop></linearGradient><linearGradient id="paint1_linear" x1="24.4395" y1="23.6041" x2="-0.209441" y2="23.6041" gradientUnits="userSpaceOnUse"><stop stop-color="#FFE000"></stop><stop offset="0.4087" stop-color="#FFBD00"></stop><stop offset="0.7754" stop-color="#FFA500"></stop><stop offset="1" stop-color="#FF9C00"></stop></linearGradient><linearGradient id="paint2_linear" x1="0.223957" y1="19.9533" x2="-15.1977" y2="-6.9087" gradientUnits="userSpaceOnUse"><stop stop-color="#FF3A44"></stop><stop offset="1" stop-color="#C31162"></stop></linearGradient><linearGradient id="paint3_linear" x1="-9.3115" y1="29.2419" x2="-2.42902" y2="17.2459" gradientUnits="userSpaceOnUse"><stop stop-color="#32A071"></stop><stop offset="0.0685" stop-color="#2DA771"></stop><stop offset="0.4762" stop-color="#15CF74"></stop><stop offset="0.8009" stop-color="#06E775"></stop><stop offset="1" stop-color="#00F076"></stop></linearGradient></defs></svg>