    <svg
      viewBox="0 0 16 16"
      fill="white"
      xmlns="http://www.w3.org/2000/svg"
      class="IconButton_iconMarginRight__18LHH"
      width="16"
      height="16"
    >
      <path
        fill-rule="evenodd"
        clip-rule="evenodd"
        d="M6.62877 13.3786C6.62877 13.4054 6.63211 13.4723 6.63881 13.5795C6.64551 13.6866 6.64718 13.7753 6.64383 13.8456C6.64048 13.916 6.63044 13.9946 6.6137 14.0817C6.59696 14.1687 6.56348 14.234 6.51325 14.2776C6.46303 14.3211 6.39439 14.3429 6.30734 14.3429H3.09305C2.29618 14.3429 1.61482 14.0599 1.04897 13.4941C0.483119 12.9282 0.200195 12.2469 0.200195 11.45V4.37858C0.200195 3.5817 0.483119 2.90034 1.04897 2.33449C1.61482 1.76864 2.29618 1.48572 3.09305 1.48572H6.30734C6.39439 1.48572 6.46973 1.51753 6.53334 1.58114C6.59696 1.64476 6.62877 1.72009 6.62877 1.80715C6.62877 1.83393 6.63211 1.9009 6.63881 2.00804C6.64551 2.11518 6.64718 2.20391 6.64383 2.27422C6.64048 2.34453 6.63044 2.42322 6.6137 2.51027C6.59696 2.59732 6.56348 2.66261 6.51325 2.70614C6.46303 2.74967 6.39439 2.77143 6.30734 2.77143H3.09305C2.65109 2.77143 2.27274 2.9288 1.95801 3.24353C1.64328 3.55826 1.48591 3.93661 1.48591 4.37857V11.45C1.48591 11.892 1.64328 12.2703 1.95801 12.585C2.27274 12.8998 2.65109 13.0571 3.09305 13.0571H5.98591C5.99261 13.0571 6.02944 13.0571 6.0964 13.0571C6.16337 13.0571 6.20689 13.0571 6.22698 13.0571C6.24707 13.0571 6.28558 13.0605 6.3425 13.0672C6.39942 13.0739 6.43792 13.0839 6.45801 13.0973C6.4781 13.1107 6.50488 13.1291 6.53837 13.1526C6.57185 13.176 6.59529 13.2061 6.60868 13.243C6.62207 13.2798 6.62877 13.325 6.62877 13.3786L6.62877 13.3786ZM15.7593 7.46227C15.8866 7.58951 15.9502 7.74018 15.9502 7.91428C15.9502 8.08839 15.8866 8.23906 15.7593 8.36629L10.295 13.8306C10.1678 13.9578 10.0171 14.0214 9.84303 14.0214C9.66893 14.0214 9.51826 13.9578 9.39102 13.8306C9.26379 13.7033 9.20018 13.5527 9.20018 13.3786V10.4857H4.70018C4.52607 10.4857 4.3754 10.4221 4.24817 10.2949C4.12094 10.1676 4.05732 10.017 4.05732 9.84285V5.98571C4.05732 5.8116 4.12094 5.66093 4.24817 5.5337C4.3754 5.40647 4.52607 5.34285 4.70018 5.34285H9.20018V2.45C9.20018 2.27589 9.26379 2.12522 9.39102 1.99799C9.51826 1.87075 9.66893 1.80714 9.84303 1.80714C10.0171 1.80714 10.1678 1.87075 10.295 1.99799L15.7593 7.46227Z"
      ></path>
    </svg>